<svg id="visual" viewBox="0 0 900 600" width="900" height="600" xmlns="http://www.w3.org/2000/svg" xmlns:xlink="http://www.w3.org/1999/xlink" version="1.1"><rect x="0" y="0" width="900" height="600" fill="#ffffff"></rect><path d="M0 441L21.5 449.8C43 458.7 86 476.3 128.8 490.2C171.7 504 214.3 514 257.2 505.3C300 496.7 343 469.3 385.8 464.5C428.7 459.7 471.3 477.3 514.2 472C557 466.7 600 438.3 642.8 439.8C685.7 441.3 728.3 472.7 771.2 474.5C814 476.3 857 448.7 878.5 434.8L900 421L900 601L878.5 601C857 601 814 601 771.2 601C728.3 601 685.7 601 642.8 601C600 601 557 601 514.2 601C471.3 601 428.7 601 385.8 601C343 601 300 601 257.2 601C214.3 601 171.7 601 128.8 601C86 601 43 601 21.5 601L0 601Z" fill="#75bd9f" stroke-linecap="round" stroke-linejoin="miter"></path></svg>